<?xml version="1.0" standalone="no"?>
<!DOCTYPE svg PUBLIC "-//W3C//DTD SVG 20010904//EN"
 "http://www.w3.org/TR/2001/REC-SVG-20010904/DTD/svg10.dtd">
<svg version="1.0" xmlns="http://www.w3.org/2000/svg"
 width="260.000000pt" height="360.000000pt" viewBox="0 0 260.000000 360.000000"
 preserveAspectRatio="xMidYMid meet">

<g transform="translate(0.000000,360.000000) scale(0.100000,-0.100000)"
fill="#000000" stroke="none">
<path d="M286 3272 c-2 -4 4 -8 14 -8 10 0 16 4 14 8 -3 4 -9 8 -14 8 -5 0
-11 -4 -14 -8z"/>
<path d="M270 3216 c7 -7 13 -7 20 0 6 6 3 10 -10 10 -13 0 -16 -4 -10 -10z"/>
<path d="M1906 3142 c-3 -5 1 -9 9 -9 8 0 12 4 9 9 -3 4 -7 8 -9 8 -2 0 -6 -4
-9 -8z"/>
<path d="M1944 3068 c-4 -7 -4 -10 1 -6 4 4 15 2 24 -5 14 -11 14 -10 2 6 -16
20 -18 21 -27 5z"/>
<path d="M1398 2933 c7 -3 16 -2 19 1 4 3 -2 6 -13 5 -11 0 -14 -3 -6 -6z"/>
<path d="M1236 2909 c3 -5 -2 -10 -10 -10 -24 -2 -29 -4 -52 -17 -12 -6 -24
-8 -28 -4 -4 3 -4 -1 -1 -10 4 -10 24 -18 54 -22 71 -9 148 -52 178 -98 30
-45 42 -129 25 -177 -7 -19 -7 -33 -1 -36 5 -4 9 -1 9 6 0 7 6 5 14 -6 13 -18
16 -17 77 25 35 23 66 44 67 46 2 1 7 18 12 38 11 49 -7 124 -40 166 -15 19
-28 39 -28 43 0 5 -4 12 -8 15 -4 4 -4 1 1 -7 4 -7 4 -12 -1 -9 -5 2 -24 10
-41 17 -19 7 -30 18 -26 24 3 5 1 7 -5 3 -6 -3 -32 -2 -59 3 -74 15 -143 19
-137 10z"/>
<path d="M1066 2853 c-6 -14 -5 -15 5 -6 7 7 10 15 7 18 -3 3 -9 -2 -12 -12z"/>
<path d="M45 2786 c-28 -18 -36 -26 -25 -30 8 -3 204 -51 434 -106 l419 -101
65 13 c36 7 67 18 69 24 2 7 -6 10 -23 6 -20 -4 -25 -2 -19 8 5 8 4 11 -3 6
-5 -3 -198 41 -428 99 -230 58 -426 105 -434 105 -8 0 -33 -11 -55 -24z"/>
<path d="M680 2690 c0 -5 5 -10 10 -10 6 0 10 5 10 10 0 6 -4 10 -10 10 -5 0
-10 -4 -10 -10z"/>
<path d="M758 2663 c7 -3 16 -2 19 1 4 3 -2 6 -13 5 -11 0 -14 -3 -6 -6z"/>
<path d="M1000 2660 c0 -5 5 -10 11 -10 5 0 7 5 4 10 -3 6 -8 10 -11 10 -2 0
-4 -4 -4 -10z"/>
<path d="M990 2620 c-9 -6 -10 -10 -3 -10 6 0 15 5 18 10 8 12 4 12 -15 0z"/>
<path d="M1455 2484 c-305 -210 -410 -294 -476 -380 -34 -44 -80 -156 -94
-227 -14 -71 -22 -194 -14 -200 2 -2 155 3 339 10 184 7 341 11 348 8 6 -2 12
-17 12 -32 0 -20 3 -24 9 -14 7 12 24 10 102 -9 139 -35 285 -27 336 18 10 9
28 22 38 28 51 29 25 32 -217 31 -231 -2 -246 -1 -299 21 -77 31 -136 86 -153
142 -11 39 -11 59 5 153 27 157 53 186 157 174 97 -11 264 -46 279 -58 18 -16
46 -71 63 -124 7 -22 24 -70 38 -107 23 -61 28 -68 53 -68 15 0 31 -5 35 -11
3 -6 26 -20 50 -30 37 -17 47 -18 66 -7 54 31 80 66 38 53 -12 -4 -38 -4 -60
0 -65 11 -110 63 -190 220 -87 169 -112 205 -146 205 -20 0 -25 4 -22 21 2 12
15 31 30 42 25 18 31 19 74 7 26 -8 69 -28 96 -46 27 -18 45 -28 42 -22 -5 7
-2 9 7 6 8 -3 21 2 29 10 13 14 12 15 -3 9 -11 -4 -16 -3 -12 3 3 6 13 10 20
10 8 0 19 10 25 23 10 20 10 20 -3 5 -21 -26 -30 -22 -12 5 11 18 12 24 3 24
-7 0 -49 5 -93 11 -44 6 -116 10 -160 10 -44 0 -99 5 -121 11 -42 11 -54 27
-70 94 -3 15 -11 27 -18 27 -6 0 -20 2 -31 5 -13 2 -49 -16 -100 -51z"/>
<path d="M2117 2500 c-3 -11 -1 -20 4 -20 5 0 9 9 9 20 0 11 -2 20 -4 20 -2 0
-6 -9 -9 -20z"/>
<path d="M2095 2429 c-4 -6 -5 -12 -2 -15 2 -3 7 2 10 11 7 17 1 20 -8 4z"/>
<path d="M2070 2390 c0 -19 3 -21 12 -12 9 9 9 15 0 24 -9 9 -12 7 -12 -12z"/>
<path d="M1545 2028 c-4 -23 -2 -50 7 -75 l13 -38 3 42 c2 22 -1 56 -6 75 l-9
33 -8 -37z"/>
<path d="M1063 1543 c-29 -4 -62 -28 -51 -38 7 -7 57 -7 133 -1 l70 6 -50 -13
c-152 -41 -281 -160 -363 -338 -20 -45 -52 -197 -52 -251 0 -16 -4 -28 -10
-28 -5 0 -10 6 -10 13 0 8 -11 20 -25 27 -14 8 -24 19 -21 25 2 6 -5 12 -16
12 -13 1 -18 -3 -14 -15 3 -9 8 -30 12 -47 4 -16 16 -48 27 -70 22 -45 195
-226 245 -257 20 -12 31 -26 28 -34 -3 -7 5 -20 17 -29 57 -40 287 7 295 60 1
11 19 31 38 44 58 40 133 131 169 206 32 67 34 78 46 247 13 197 10 214 -52
304 -41 61 -97 95 -219 137 -115 39 -149 46 -197 40z"/>
<path d="M1790 1445 c-18 -48 -21 -98 -23 -471 l-2 -370 -38 -77 c-41 -83 -33
-78 -127 -82 -14 0 -31 5 -38 12 -23 23 -33 14 -18 -16 9 -16 13 -31 11 -33
-12 -12 36 -38 78 -44 78 -11 91 -3 133 83 l39 77 10 421 c6 232 15 426 19
433 8 14 -10 78 -25 87 -5 4 -14 -6 -19 -20z"/>
<path d="M1861 1244 c0 -11 3 -14 6 -6 3 7 2 16 -1 19 -3 4 -6 -2 -5 -13z"/>
</g>
</svg>
