<?xml version="1.0" encoding="utf-8"?>
<!-- Generator: Adobe Illustrator 19.0.0, SVG Export Plug-In . SVG Version: 6.00 Build 0)  -->
<svg version="1.0" xmlns="http://www.w3.org/2000/svg" xmlns:xlink="http://www.w3.org/1999/xlink" x="0px" y="0px" width="982px"
	 height="283.9px" viewBox="0 0 982 283.9" style="enable-background:new 0 0 982 283.9;" xml:space="preserve">
<style type="text/css">
	.st0{fill:#FFFFFF;}
	.st1{fill:#4B7BEC;}
</style>
<g id="Layer_5">
	<path id="XMLID_9_" class="st0" d="M91.7,4.1c-23.7,0-44.4,17.3-50.3,42l-38.3,236H889c23.4,0,43.9-17,49.8-41.4L980.2,4.1H91.7z"
		/>
</g>
<g id="Layer_1">
	<g id="Layer_2">
	</g>
</g>
<g id="Layer_3">
	<path id="XMLID_4_" class="st1" d="M590,25.3c0-2.9-2.3-5.2-5.2-5.2h-31.6c-2.9,0-5.2,2.3-5.2,5.2v232.6c0,2.9,2.3,5.2,5.2,5.2
		h31.6c2.9,0,5.2-2.3,5.2-5.2V25.3z"/>
	<path id="XMLID_19_" class="st1" d="M754.9,89.8c3.3,0,5.8-3,5.1-6.3c-3.6-17-19-62.4-79.1-62.4c-74,0-73.8,65.1-73.8,68.8
		c0.2,91.3,110.4,55.3,110,105.1c-0.3,31.7-29.1,28-36.5,28c-33.1,0-38.7-22.6-39.5-32.7c-0.2-2.7-2.5-4.8-5.2-4.8l-29,0.1
		c-3,0-5.4,2.5-5.2,5.5c1,17.5,9.7,71,76.4,71c79.8,0,81.7-63.3,81.7-67.7c0-88.8-113.4-52.7-113.4-104.2c0-13.8,8.2-31,36.3-31.4
		c23.1-0.3,34.6,18,37.6,27.2c0.7,2.1,2.7,3.5,4.9,3.6L754.9,89.8z"/>
	<path id="XMLID_18_" class="st1" d="M921,89.3c3.3,0,5.8-3,5.1-6.3c-3.6-17-19-62.4-79.1-62.4c-74,0-73.8,65.1-73.8,68.8
		c0.2,91.3,110.4,55.3,110,105.1c-0.3,31.7-29.1,28-36.5,28c-33.1,0-38.7-22.6-39.5-32.7c-0.2-2.7-2.5-4.8-5.2-4.8l-29,0.1
		c-3,0-5.4,2.5-5.2,5.5c1,17.5,9.7,71,76.4,71c79.8,0,81.7-63.3,81.7-67.7c0-88.8-113.4-52.7-113.4-104.2c0-13.8,8.2-31,36.3-31.4
		c23.1-0.3,34.6,18,37.6,27.2c0.7,2.1,2.7,3.5,4.9,3.6L921,89.3z"/>
	<g id="XMLID_2_">
		<path id="XMLID_3_" class="st1" d="M153.3,128c-2.5-6.1-11.1-6.2-13.7-0.1L126.8,159c-0.7,1.8-0.8,3.7-0.1,5.5l36.4,93.9
			c1.1,2.8,3.8,4.7,6.9,4.7h27c5.2,0,8.8-5.3,6.8-10.1L153.3,128z"/>
		<path id="XMLID_8_" class="st1" d="M262.9,253.2L222,151.9v-0.1L171.9,26.7c-1.1-2.8-3.7-4.6-6.7-4.6h-34.7c-3,0-5.7,1.8-6.8,4.6
			L30.3,252.5c-2,4.8,1.5,10.2,6.8,10.2l28,0.1c3,0,5.7-1.8,6.9-4.6l67.8-165.6c2.5-6.1,11.2-6.1,13.7,0L220,258.5
			c1.1,2.8,3.8,4.6,6.8,4.6h1.4h28c1,0,1.9,0,2.7,0C262.6,261.1,264.5,257.2,262.9,253.2z"/>
	</g>
	<path id="XMLID_17_" class="st1" d="M278,66.8v47.5c0,3.4,3.3,6.8,6.8,6.8h73.5c2.9,0,4.8,1.8,4.8,4.8v30.5c0,3.4-2.3,6.8-5.8,6.8
		h-72.5c-3.4,0-6.8,2.3-6.8,5.8v46.5c0,3.4,3.3,6.8,6.8,6.8h73.5c2.9,0,4.8,1.8,4.8,4.8v29.5c0,3.4-2.3,6.8-5.8,6.8h-84.4
		c3.7-2,5.8-5.9,4.2-9.9L236.4,152l-0.2-125.8c0-2.9,2.4-5.1,5.3-5.1h116.8c2.9,0,4.8,1.8,4.8,4.8v29.5c0,3.4-2.3,6.8-5.8,6.8h-73.5
		C280.9,62.1,278,63.9,278,66.8z"/>
</g>
<g id="Layer_4">
	<g id="XMLID_6_">
		<path id="XMLID_12_" class="st1" d="M491.5,161.1c-1.4-2.8,0-6.3,3.1-7.3c11.4-3.7,35.4-17.3,35.4-66.2c0-64.3-55.4-67.5-71-67.5
			h-68.7c-2.9,0-5.2,2.3-5.2,5.2v232.6c0,2.9,2.3,5.2,5.2,5.2h31.6c2.9,0,5.2-2.3,5.2-5.2v-91.3c0-2.9,2.4-5.2,5.3-5.2l12.4,0.1
			c2,0,3.9,1.2,4.7,3l43.7,94.9c0.9,1.8,2.7,3,4.7,3l35,0c3.9,0,6.4-4,4.7-7.5L491.5,161.1z M456.4,121.1h-24.1
			c-2.9,0-5.2-2.3-5.2-5.2v-49c0-2.9,2.3-5.2,5.2-5.2l25.7-0.1c0.1,0,0.3,0,0.4,0c2.7,0.2,30.2,2.6,30.2,26.6
			C488.5,116.7,471.6,121.1,456.4,121.1z"/>
	</g>
</g>
</svg>
