<svg xmlns="http://www.w3.org/2000/svg" viewBox="0 0 539.32 254.33"><defs><style>.cls-1{fill:#3a3938;}.cls-2{fill:#f3bb44;}.cls-3{fill:#5ebdaf;}.cls-4{fill:none;stroke:#5ebdaf;stroke-linecap:round;stroke-linejoin:round;stroke-width:4.25px;}</style></defs><g id="Calque_2" data-name="Calque 2"><g id="OBJECTS"><path class="cls-1" d="M376.13,18.71C363.54,6.12,348.72,0,330.84,0s-32.7,6.12-45.28,18.71c-9,9-14.67,19.13-17.19,30.69-2.54-11.47-8.2-21.53-17.14-30.47C238.64,6.34,223.82.22,206,.22H150.87A8.93,8.93,0,0,0,142,9.14,9.9,9.9,0,0,0,151.84,19H206c13.61,0,25.19,5.34,34.41,15.87A43.5,43.5,0,0,1,251,60c1.24,16.13-4.54,29.55-17.21,39.89a43.77,43.77,0,0,1-27.67,9.51H153.42A11.47,11.47,0,0,0,142,120.88a7.35,7.35,0,0,0,7.34,7.34H206c17.87,0,32.69-6.13,45.28-18.72,9-9,14.67-19.12,17.19-30.69,2.54,11.47,8.2,21.54,17.14,30.47C298.14,121.87,313,128,330.84,128s32.7-6.12,45.29-18.71S394.84,81.88,394.84,64,388.72,31.3,376.13,18.71ZM362.8,96h0a45.19,45.19,0,0,1-63.91,0,43.71,43.71,0,0,1-13.24-32,43.75,43.75,0,0,1,13.24-32,45.21,45.21,0,0,1,63.91,0A43.78,43.78,0,0,1,376,64,43.75,43.75,0,0,1,362.8,96Z"/><path class="cls-2" d="M161.64,64.22a11.36,11.36,0,1,1-11.36-11.37A11.36,11.36,0,0,1,161.64,64.22Z"/><path class="cls-3" d="M342.2,64.22a11.36,11.36,0,1,1-11.36-11.37A11.36,11.36,0,0,1,342.2,64.22Z"/><path class="cls-1" d="M20.25,155.6a58.11,58.11,0,0,1,21,3.78,54.6,54.6,0,0,1,17.18,10.39,49.2,49.2,0,0,1,11.62,15.54,45.3,45.3,0,0,1,0,38.44,49.38,49.38,0,0,1-11.62,15.5A54,54,0,0,1,41.29,249.6a58.74,58.74,0,0,1-21,3.74H2.66a2.74,2.74,0,0,1-1.87-.69A2.19,2.19,0,0,1,0,250.9V158a2.21,2.21,0,0,1,.79-1.75,2.74,2.74,0,0,1,1.87-.69H20.25Zm48.64,49a39.82,39.82,0,0,0-3.82-17.3,43.72,43.72,0,0,0-10.41-14A49.35,49.35,0,0,0,39.18,164a52.67,52.67,0,0,0-18.93-3.4H5.4v87.82H20.25A53.08,53.08,0,0,0,39.18,245a49.16,49.16,0,0,0,15.48-9.24,43.44,43.44,0,0,0,10.41-13.9A39.7,39.7,0,0,0,68.89,204.55Z"/><path class="cls-1" d="M83.33,217.91a33.32,33.32,0,0,1,3.11-14.28A36.55,36.55,0,0,1,95,192.06a41.26,41.26,0,0,1,28-10.65,41.7,41.7,0,0,1,15.44,2.86,40.43,40.43,0,0,1,12.57,7.79,36.31,36.31,0,0,1,8.43,11.57,33.73,33.73,0,0,1,3.07,14.28,33.34,33.34,0,0,1-3.07,14.17,36.72,36.72,0,0,1-8.43,11.56,40,40,0,0,1-12.57,7.83,43,43,0,0,1-30.84,0A40.67,40.67,0,0,1,95,243.64a37,37,0,0,1-8.51-11.56A32.93,32.93,0,0,1,83.33,217.91Zm5.39,0a28.52,28.52,0,0,0,2.66,12.14,31.73,31.73,0,0,0,7.26,10,35.09,35.09,0,0,0,10.83,6.79,37.26,37.26,0,0,0,26.94,0,35,35,0,0,0,10.87-6.79,31.15,31.15,0,0,0,7.22-10,29.58,29.58,0,0,0,0-24.43,31.84,31.84,0,0,0-7.26-10,34.44,34.44,0,0,0-10.83-6.75,37.44,37.44,0,0,0-26.85,0,34.34,34.34,0,0,0-10.88,6.75,31.84,31.84,0,0,0-7.26,10A28.83,28.83,0,0,0,88.72,217.91Z"/><path class="cls-1" d="M240.2,250.82a2.41,2.41,0,0,1-.75,1.8,2.75,2.75,0,0,1-2,.72,2.63,2.63,0,0,1-1.91-.72,2.41,2.41,0,0,1-.75-1.8V216.15q-.08-14.73-6.85-22.22t-18.79-7.48a28.69,28.69,0,0,0-11.42,2.29,29.22,29.22,0,0,0-9.33,6.3,30,30,0,0,0-6.31,9.43,29.35,29.35,0,0,0-2.33,11.68v34.6a2.45,2.45,0,0,1-.79,1.83,2.56,2.56,0,0,1-1.86.76,2.67,2.67,0,0,1-2-.76,2.45,2.45,0,0,1-.79-1.83V184a2.53,2.53,0,0,1,.75-1.84,2.56,2.56,0,0,1,1.9-.76,2.71,2.71,0,0,1,1.95.76,2.45,2.45,0,0,1,.79,1.84v15.5a36.05,36.05,0,0,1,5.44-7.29,35.51,35.51,0,0,1,15.31-9.4,31.32,31.32,0,0,1,9.13-1.33,33.17,33.17,0,0,1,12.79,2.33,25.59,25.59,0,0,1,9.58,6.79,30.67,30.67,0,0,1,6.06,11,47.78,47.78,0,0,1,2.12,14.81v34.44Z"/><path class="cls-1" d="M321.78,250.82a2.44,2.44,0,0,1-.74,1.8,2.77,2.77,0,0,1-2,.72,2.61,2.61,0,0,1-1.9-.72,2.41,2.41,0,0,1-.75-1.8V216.15q-.09-14.73-6.85-22.22t-18.8-7.48a28.64,28.64,0,0,0-11.41,2.29A29.37,29.37,0,0,0,270,195a30.13,30.13,0,0,0-6.31,9.43,29.34,29.34,0,0,0-2.32,11.68v34.6a2.45,2.45,0,0,1-.79,1.83,2.6,2.6,0,0,1-1.87.76,2.7,2.7,0,0,1-1.95-.76,2.48,2.48,0,0,1-.79-1.83V184a2.53,2.53,0,0,1,.75-1.84,2.6,2.6,0,0,1,1.91-.76,2.73,2.73,0,0,1,1.95.76,2.45,2.45,0,0,1,.79,1.84v15.5a36.31,36.31,0,0,1,12.49-13,35.32,35.32,0,0,1,8.26-3.71,31.27,31.27,0,0,1,9.13-1.33A33.09,33.09,0,0,1,304,183.82a25.63,25.63,0,0,1,9.59,6.79,30.82,30.82,0,0,1,6.06,11,47.79,47.79,0,0,1,2.11,14.81v34.44Z"/><path class="cls-1" d="M338.71,220.2a27.86,27.86,0,0,0,3.11,11.46,31.4,31.4,0,0,0,7.31,9.27,34.62,34.62,0,0,0,10.5,6.23,35.32,35.32,0,0,0,12.7,2.29,36.2,36.2,0,0,0,7.55-.8,38.2,38.2,0,0,0,7.1-2.26,32.84,32.84,0,0,0,6.22-3.51,26.9,26.9,0,0,0,5-4.66,2.8,2.8,0,0,1,2.66-.76,2.11,2.11,0,0,1,1.08.84,2.38,2.38,0,0,1,.87,1.64,2.23,2.23,0,0,1-.95,1.95,39.69,39.69,0,0,1-29.55,12.37,41.18,41.18,0,0,1-15.4-2.87,40.26,40.26,0,0,1-12.53-7.78A36.89,36.89,0,0,1,335.93,232a33.9,33.9,0,0,1,0-28.37,37,37,0,0,1,8.47-11.53,40.47,40.47,0,0,1,12.53-7.79,42.86,42.86,0,0,1,30.79,0,40.52,40.52,0,0,1,12.54,7.79,37.36,37.36,0,0,1,8.5,11.53,32.18,32.18,0,0,1,3.16,14.09,2.4,2.4,0,0,1-.71,1.72,2.49,2.49,0,0,1-1.86.72Zm67.73-4.27a28.08,28.08,0,0,0-3.15-11.61,32.5,32.5,0,0,0-7.39-9.43,35,35,0,0,0-10.63-6.34,36.79,36.79,0,0,0-25.77,0,34.52,34.52,0,0,0-10.58,6.38,31.69,31.69,0,0,0-7.3,9.43,28.5,28.5,0,0,0-3.07,11.57Z"/><path class="cls-1" d="M437,181.41h14.19a2.73,2.73,0,0,1,1.95.73,2.32,2.32,0,0,1,.79,1.79,2.23,2.23,0,0,1-.79,1.76,2.83,2.83,0,0,1-1.95.68H437V250.9a2.19,2.19,0,0,1-.79,1.75,2.85,2.85,0,0,1-1.95.69,2.76,2.76,0,0,1-1.87-.69,2.22,2.22,0,0,1-.79-1.75V186.37H420a3,3,0,0,1-2-.68,2.23,2.23,0,0,1-.79-1.76,2.32,2.32,0,0,1,.79-1.79,2.88,2.88,0,0,1,2-.73h11.61V158a2.24,2.24,0,0,1,.79-1.75,2.76,2.76,0,0,1,1.87-.69,2.85,2.85,0,0,1,1.95.69A2.21,2.21,0,0,1,437,158Z"/><path class="cls-1" d="M462.54,165a3.44,3.44,0,0,1,1.12-2.63,4,4,0,0,1,2.78-1,4.23,4.23,0,0,1,2.91,1,3.37,3.37,0,0,1,1.16,2.63,3.32,3.32,0,0,1-1.16,2.52,4.12,4.12,0,0,1-2.91,1.07,3.86,3.86,0,0,1-2.78-1.07A3.39,3.39,0,0,1,462.54,165Zm6.64,85.76a2.45,2.45,0,0,1-.79,1.83,2.58,2.58,0,0,1-1.86.76,2.67,2.67,0,0,1-1.95-.76,2.45,2.45,0,0,1-.79-1.83V184a2.56,2.56,0,0,1,.74-1.84,2.6,2.6,0,0,1,1.91-.76,2.71,2.71,0,0,1,1.95.76,2.45,2.45,0,0,1,.79,1.84Z"/><path class="cls-1" d="M510.35,209.74l28.47,39.71a2.38,2.38,0,0,1,.45,1.94,2.27,2.27,0,0,1-1.12,1.57,2.91,2.91,0,0,1-1.95.38,2.49,2.49,0,0,1-1.7-1.07l-28.14-39.09L491,226.62v24.2a2.37,2.37,0,0,1-.79,1.8,2.69,2.69,0,0,1-1.87.72,2.8,2.8,0,0,1-2-.72,2.34,2.34,0,0,1-.79-1.8v-92.7a2.32,2.32,0,0,1,.79-1.79,2.76,2.76,0,0,1,2-.73,2.6,2.6,0,0,1,1.91.73,2.39,2.39,0,0,1,.75,1.79V220.2l42.74-37.8a2.84,2.84,0,0,1,2-.72,2.78,2.78,0,0,1,1.79.72c0,.11,0,.17,0,.19s0,.09,0,.2a1.94,1.94,0,0,1,.58,1.6,2.52,2.52,0,0,1-.75,1.6Z"/><path class="cls-2" d="M471.55,165.05a4.93,4.93,0,1,1-4.93-4.93A4.93,4.93,0,0,1,471.55,165.05Z"/><line class="cls-4" x1="356.33" y1="169.97" x2="387.84" y2="169.97"/></g></g></svg>